{"title":"Kick Ass *2010* [DVDRip.XviD-miguel] [Lektor PL]","uid":6299845,"size":339561798,"categoryP":"video","categoryS":"movies","magnet":"?xt=urn:btih:6291158c822a8ab0aba26d64c7edfbbdb5d9139b&amp;dn=Kick+Ass+%2A2010%2A+%5BDVDRip.XviD-miguel%5D+%5BLektor+PL%5D&amp;tr=udp%3A%2F%2Ftracker.openbittorrent.com%3A80&amp;tr=udp%3A%2F%2Fopen.demonii.com%3A1337&amp;tr=udp%3A%2F%2Ftracker.coppersurfer.tk%3A6969&amp;tr=udp%3A%2F%2Fexodus.desync.com%3A6969","seeders":2,"leechers":1,"uploader":"miguel1983","files":-1,"time":1302116634,"description":" &lt;a href=&quot;http://img856.imageshack.us/img856/7928/kickass2010.jpg&quot; rel=&quot;nofollow&quot; target=&quot;_NEW&quot;&gt;http://img856.imageshack.us/img856/7928/kickass2010.jpg&lt;/a&gt;\n\nCountry.......: USA, United Kingdom\nGenre.........: Comedy, Action, Adventure\nDate release..: 12.03.2010 [World]\nDirector......: Matthew Vaughn\nWriters.......: Jane Goldman, Matthew Vaughn\nDuration......: 112 min.\nMore..........: http://www.imdb.com/title/tt1250777\nTrailer.......: http://www.imdb.com/video/imdb/vi1572603673\nTrailer.......:\n\nPilot :\nA comic book fan decides to become a super hero, Batman, Superman, Spiderman. Orders a dress on ebay for pennies and strikes in the world to fight the evil cats and dogs. Will it be better than the other characters, or be stronger? learn to fly?\n\nCats :\nAaron Johnson \t... \tDave Lizewski Kick-Ass\nGarrett M. Brown \t... \tMr. Lizewski\nClark Duke \t... \tMarty\nEvan Peters \t... \tTodd\nDeborah Twiss \t... \tMrs. Zane\nLyndsy Fonseca \t... \tKatie Deauxma\nSophie Wu \t... \tErika Cho\nElizabeth McGovern \t... \tMrs. Lizewski\nChristopher Mintz-Plasse \t... \tChris D Amico Red Mist\nStu 'Large' Riley \t... \tHuge Goon (as Stu Riley)\nJohnny Hopkins \t... \t1st Gang Kid\nOhene Cornelius \t... \t2nd Gang Kid\nMark Strong \t... \tFrank D'Amico\nMichael Rispoli \t... \tBig Joe\nCorey Johnson \t... \tSporty Goon \n\nData Technical :\n!!! SAMPLE !!!\nAudio.....: Lector Polish\nSubtitles.: None\nFormat                           : AVI\nFormat/Info                      : Audio Video Interleave\nFile size                        : 322 MiB\nDuration                         : 1h 52mn\nOverall bit rate                 : 400 Kbps\nWriting application              : VirtualDubMod 1.5.10.2 (build 2542/release)\nWriting library                  : VirtualDubMod build 2542/release\nVideo\nID                               : 0\nFormat                           : MPEG-4 Visual\nFormat profile                   : Advanced Simple@L5\nFormat settings, BVOP            : Yes\nFormat settings, QPel            : No\nFormat settings, GMC             : No warppoints\nFormat settings, Matrix          : Default (H.263)\nMuxing mode                      : Packed bitstream\nCodec ID                         : XVID\nCodec ID/Hint                    : XviD\nDuration                         : 1h 52mn\nBit rate                         : 263 Kbps\nWidth                            : 640 pixels\nHeight                           : 360 pixels\nDisplay aspect ratio             : 16:9\nFrame rate                       : 25.000 fps\nColor space                      : YUV\nChroma subsampling               : 4:2:0\nBit depth                        : 8 bits\nScan type                        : Progressive\nBits/(Pixel*Frame)               : 0.046\nStream size                      : 211 MiB (66%)\nWriting library                  : XviD 1.2.1\nAudio\nID                               : 1\nFormat                           : MPEG Audio\nFormat version                   : Version 1\nFormat profile                   : Layer 3\nMode                             : Joint stereo\nMode extension                   : MS Stereo\nCodec ID                         : 55\nCodec ID/Hint                    : MP3\nDuration                         : 1h 52mn\nBit rate mode                    : Constant\nBit rate                         : 128 Kbps\nChannel(s)                       : 2 channels\nSampling rate                    : 48.0 KHz\nStream size                      : 103 MiB (32%)\nAlignment                        : Split accross interleaves\nInterleave, duration             : 40 ms (1.00 video frame)\nInterleave, preload duration     : 500 ms\n\nScreen : &lt;a href=&quot;\nhttp://img51.imageshack.us/img51/4307/kickass2010s4.jpg&quot; rel=&quot;nofollow&quot; target=&quot;_NEW&quot;&gt;\nhttp://img51.imageshack.us/img51/4307/kickass2010s4.jpg&lt;/a&gt; &lt;a href=&quot;\nhttp://img43.imageshack.us/img43/2237/kickass2010s1.jpg&quot; rel=&quot;nofollow&quot; target=&quot;_NEW&quot;&gt;\nhttp://img43.imageshack.us/img43/2237/kickass2010s1.jpg&lt;/a&gt; &lt;a href=&quot;\nhttp://img84.imageshack.us/img84/992/kickass2010s2.jpg&quot; rel=&quot;nofollow&quot; target=&quot;_NEW&quot;&gt;\nhttp://img84.imageshack.us/img84/992/kickass2010s2.jpg&lt;/a&gt; &lt;a href=&quot;\nhttp://img6.imageshack.us/img6/7672/kickass2010s3.jpg&quot; rel=&quot;nofollow&quot; target=&quot;_NEW&quot;&gt;\nhttp://img6.imageshack.us/img6/7672/kickass2010s3.jpg&lt;/a&gt;","torrent":{"xt":"urn:btih:6291158c822a8ab0aba26d64c7edfbbdb5d9139b","amp;dn":"Kick+Ass+%2A2010%2A+%5BDVDRip.XviD-miguel%5D+%5BLektor+PL%5D","amp;tr":["udp%3A%2F%2Ftracker.openbittorrent.com%3A80","udp%3A%2F%2Fopen.demonii.com%3A1337","udp%3A%2F%2Ftracker.coppersurfer.tk%3A6969","udp%3A%2F%2Fexodus.desync.com%3A6969"],"infoHash":"6291158c822a8ab0aba26d64c7edfbbdb5d9139b","infoHashBuffer":{"type":"Buffer","data":[98,145,21,140,130,42,138,176,171,162,109,100,199,237,251,189,181,217,19,155]},"announce":[],"urlList":[]}}